<?xml version="1.0" encoding="UTF-8" standalone="no"?><!DOCTYPE svg PUBLIC "-//W3C//DTD SVG 1.1//EN" "http://www.w3.org/Graphics/SVG/1.1/DTD/svg11.dtd"><!-- Generated by graphviz version 2.40.1 (20161225.0304)
 --><!-- Title: src Pages: 1 --><svg xmlns="http://www.w3.org/2000/svg" xmlns:xlink="http://www.w3.org/1999/xlink" width="2609pt" height="1712pt" viewBox="0.00 0.00 2609.14 1711.60">
<g id="graph0" class="graph" transform="scale(1 1) rotate(0) translate(4 1707.6)">
<title>src</title>
<polygon fill="#ffffff" stroke="transparent" points="-4,4 -4,-1707.6 2605.1382,-1707.6 2605.1382,4 -4,4"/>
<!-- Activity -->
<g id="node1" class="node">
<title>Activity</title>
<polygon fill="none" stroke="#000000" points="886.7535,-364.1 886.7535,-756.9 1392.1445,-756.9 1392.1445,-364.1 886.7535,-364.1"/>
<text text-anchor="middle" x="1139.449" y="-740.3" font-family="Times,serif" font-size="14.00" fill="#000000">Activity</text>
<polyline fill="none" stroke="#000000" points="886.7535,-732.1 1392.1445,-732.1 "/>
<text text-anchor="start" x="894.7535" y="-715.5" font-family="Times,serif" font-size="14.00" fill="#000000">+ Activity(String, String, String, int, boolean, List&lt;Activity&gt;, List&lt;Activity&gt;, String) : </text>
<polyline fill="none" stroke="#000000" points="886.7535,-707.3 1392.1445,-707.3 "/>
<text text-anchor="start" x="894.7535" y="-690.7" font-family="Times,serif" font-size="14.00" fill="#000000">- durationInMinutes : int</text>
<text text-anchor="start" x="894.7535" y="-673.9" font-family="Times,serif" font-size="14.00" fill="#000000"> - difficultyLevel : String</text>
<text text-anchor="start" x="894.7535" y="-657.1" font-family="Times,serif" font-size="14.00" fill="#000000"> - description : String</text>
<text text-anchor="start" x="894.7535" y="-640.3" font-family="Times,serif" font-size="14.00" fill="#000000"> - prerequisites : List&lt;Activity&gt;</text>
<text text-anchor="start" x="894.7535" y="-623.5" font-family="Times,serif" font-size="14.00" fill="#000000"> - objective : String</text>
<text text-anchor="start" x="894.7535" y="-606.7" font-family="Times,serif" font-size="14.00" fill="#000000"> - deadline : LocalDate</text>
<text text-anchor="start" x="894.7535" y="-589.9" font-family="Times,serif" font-size="14.00" fill="#000000"> - recommendedFollowUps : List&lt;Activity&gt;</text>
<text text-anchor="start" x="894.7535" y="-573.1" font-family="Times,serif" font-size="14.00" fill="#000000"> - activityType : String</text>
<text text-anchor="start" x="894.7535" y="-556.3" font-family="Times,serif" font-size="14.00" fill="#000000"> - mandatory : boolean</text>
<polyline fill="none" stroke="#000000" points="886.7535,-548.1 1392.1445,-548.1 "/>
<text text-anchor="start" x="894.7535" y="-531.5" font-family="Times,serif" font-size="14.00" fill="#000000">+ isCompletedByStudent(Student) : boolean</text>
<polyline fill="none" stroke="#000000" points="886.7535,-523.3 1392.1445,-523.3 "/>
<text text-anchor="start" x="894.7535" y="-506.7" font-family="Times,serif" font-size="14.00" fill="#000000">description : String</text>
<text text-anchor="start" x="894.7535" y="-489.9" font-family="Times,serif" font-size="14.00" fill="#000000"> mandatory : boolean</text>
<text text-anchor="start" x="894.7535" y="-473.1" font-family="Times,serif" font-size="14.00" fill="#000000"> objective : String</text>
<text text-anchor="start" x="894.7535" y="-456.3" font-family="Times,serif" font-size="14.00" fill="#000000"> prerequisites : List&lt;Activity&gt;</text>
<text text-anchor="start" x="894.7535" y="-439.5" font-family="Times,serif" font-size="14.00" fill="#000000"> recommendedFollowUps : List&lt;Activity&gt;</text>
<text text-anchor="start" x="894.7535" y="-422.7" font-family="Times,serif" font-size="14.00" fill="#000000"> activityType : String</text>
<text text-anchor="start" x="894.7535" y="-405.9" font-family="Times,serif" font-size="14.00" fill="#000000"> deadline : LocalDate</text>
<text text-anchor="start" x="894.7535" y="-389.1" font-family="Times,serif" font-size="14.00" fill="#000000"> difficultyLevel : String</text>
<text text-anchor="start" x="894.7535" y="-372.3" font-family="Times,serif" font-size="14.00" fill="#000000"> durationInMinutes : int</text>
</g>
<!-- LearningPath -->
<g id="node2" class="node">
<title>LearningPath</title>
<polygon fill="none" stroke="#000000" points="90.0926,-810.7 90.0926,-1321.1 732.8054,-1321.1 732.8054,-810.7 90.0926,-810.7"/>
<text text-anchor="middle" x="411.449" y="-1304.5" font-family="Times,serif" font-size="14.00" fill="#000000">LearningPath</text>
<polyline fill="none" stroke="#000000" points="90.0926,-1296.3 732.8054,-1296.3 "/>
<text text-anchor="start" x="98.0926" y="-1279.7" font-family="Times,serif" font-size="14.00" fill="#000000">+ LearningPath(String, String, String, String, int, double, LocalDate, LocalDate, int, List&lt;Activity&gt;, Teacher) : </text>
<polyline fill="none" stroke="#000000" points="90.0926,-1271.5 732.8054,-1271.5 "/>
<text text-anchor="start" x="98.0926" y="-1254.9" font-family="Times,serif" font-size="14.00" fill="#000000">- creationDate : LocalDate</text>
<text text-anchor="start" x="98.0926" y="-1238.1" font-family="Times,serif" font-size="14.00" fill="#000000"> - activities : List&lt;Activity&gt;</text>
<text text-anchor="start" x="98.0926" y="-1221.3" font-family="Times,serif" font-size="14.00" fill="#000000"> - durationInMinutes : int</text>
<text text-anchor="start" x="98.0926" y="-1204.5" font-family="Times,serif" font-size="14.00" fill="#000000"> - modificationDate : LocalDate</text>
<text text-anchor="start" x="98.0926" y="-1187.7" font-family="Times,serif" font-size="14.00" fill="#000000"> - version : int</text>
<text text-anchor="start" x="98.0926" y="-1170.9" font-family="Times,serif" font-size="14.00" fill="#000000"> - teacher : Teacher</text>
<text text-anchor="start" x="98.0926" y="-1154.1" font-family="Times,serif" font-size="14.00" fill="#000000"> - difficultyLevel : String</text>
<text text-anchor="start" x="98.0926" y="-1137.3" font-family="Times,serif" font-size="14.00" fill="#000000"> - rating : double</text>
<text text-anchor="start" x="98.0926" y="-1120.5" font-family="Times,serif" font-size="14.00" fill="#000000"> - title : String</text>
<text text-anchor="start" x="98.0926" y="-1103.7" font-family="Times,serif" font-size="14.00" fill="#000000"> - description : String</text>
<text text-anchor="start" x="98.0926" y="-1086.9" font-family="Times,serif" font-size="14.00" fill="#000000"> - objectives : String</text>
<polyline fill="none" stroke="#000000" points="90.0926,-1078.7 732.8054,-1078.7 "/>
<text text-anchor="start" x="98.0926" y="-1062.1" font-family="Times,serif" font-size="14.00" fill="#000000">+ calculateProgress(Student) : double</text>
<text text-anchor="start" x="98.0926" y="-1045.3" font-family="Times,serif" font-size="14.00" fill="#000000"> + addActivity(Activity) : void</text>
<text text-anchor="start" x="98.0926" y="-1028.5" font-family="Times,serif" font-size="14.00" fill="#000000"> + updateActivity(Activity) : void</text>
<text text-anchor="start" x="98.0926" y="-1011.7" font-family="Times,serif" font-size="14.00" fill="#000000"> + removeActivity(Activity) : void</text>
<polyline fill="none" stroke="#000000" points="90.0926,-1003.5 732.8054,-1003.5 "/>
<text text-anchor="start" x="98.0926" y="-986.9" font-family="Times,serif" font-size="14.00" fill="#000000">description : String</text>
<text text-anchor="start" x="98.0926" y="-970.1" font-family="Times,serif" font-size="14.00" fill="#000000"> objectives : String</text>
<text text-anchor="start" x="98.0926" y="-953.3" font-family="Times,serif" font-size="14.00" fill="#000000"> creationDate : LocalDate</text>
<text text-anchor="start" x="98.0926" y="-936.5" font-family="Times,serif" font-size="14.00" fill="#000000"> version : int</text>
<text text-anchor="start" x="98.0926" y="-919.7" font-family="Times,serif" font-size="14.00" fill="#000000"> activities : List&lt;Activity&gt;</text>
<text text-anchor="start" x="98.0926" y="-902.9" font-family="Times,serif" font-size="14.00" fill="#000000"> modificationDate : LocalDate</text>
<text text-anchor="start" x="98.0926" y="-886.1" font-family="Times,serif" font-size="14.00" fill="#000000"> teacher : Teacher</text>
<text text-anchor="start" x="98.0926" y="-869.3" font-family="Times,serif" font-size="14.00" fill="#000000"> title : String</text>
<text text-anchor="start" x="98.0926" y="-852.5" font-family="Times,serif" font-size="14.00" fill="#000000"> rating : double</text>
<text text-anchor="start" x="98.0926" y="-835.7" font-family="Times,serif" font-size="14.00" fill="#000000"> difficultyLevel : String</text>
<text text-anchor="start" x="98.0926" y="-818.9" font-family="Times,serif" font-size="14.00" fill="#000000"> durationInMinutes : int</text>
</g>
<!-- LearningPath&#45;&gt;Activity -->
<g id="edge1" class="edge">
<title>LearningPath-&gt;Activity</title>
<path fill="none" stroke="#595959" d="M744.8616,-898C744.8616,-898 1055.2172,-898 1055.2172,-898 1055.2172,-898 1055.2172,-767.3135 1055.2172,-767.3135"/>
<polygon fill="#595959" stroke="#595959" points="744.8616,-898.0001 738.8615,-902 732.8616,-898 738.8616,-894 744.8616,-898.0001"/>
<polygon fill="#595959" stroke="#595959" points="1055.2172,-757.3135 1059.7173,-767.3135 1055.2172,-762.3135 1055.2173,-767.3135 1055.2173,-767.3135 1055.2173,-767.3135 1055.2172,-762.3135 1050.7173,-767.3136 1055.2172,-757.3135 1055.2172,-757.3135"/>
<text text-anchor="middle" x="1029.9465" y="-778.3135" font-family="Times,serif" font-size="14.00" fill="#000000">activities</text>
<text text-anchor="middle" x="1029.9465" y="-761.5135" font-family="Times,serif" font-size="14.00" fill="#000000">*</text>
<text text-anchor="middle" x="736.3616" y="-902.2" font-family="Times,serif" font-size="14.00" fill="#000000">1</text>
</g>
<!-- Teacher -->
<g id="node13" class="node">
<title>Teacher</title>
<polygon fill="none" stroke="#000000" points="165.9632,-514.9 165.9632,-606.1 868.9348,-606.1 868.9348,-514.9 165.9632,-514.9"/>
<text text-anchor="middle" x="517.449" y="-589.5" font-family="Times,serif" font-size="14.00" fill="#000000">Teacher</text>
<polyline fill="none" stroke="#000000" points="165.9632,-581.3 868.9348,-581.3 "/>
<text text-anchor="start" x="173.9632" y="-564.7" font-family="Times,serif" font-size="14.00" fill="#000000">+ Teacher(String, String, String, String) : </text>
<polyline fill="none" stroke="#000000" points="165.9632,-556.5 868.9348,-556.5 "/>
<text text-anchor="start" x="173.9632" y="-539.9" font-family="Times,serif" font-size="14.00" fill="#000000">+ addActivityToLearningPath(LearningPath, Activity) : void</text>
<text text-anchor="start" x="173.9632" y="-523.1" font-family="Times,serif" font-size="14.00" fill="#000000"> + createLearningPath(String, String, String, String, int, double, LocalDate, LocalDate, int, List&lt;Activity&gt;) : LearningPath</text>
</g>
<!-- LearningPath&#45;&gt;Teacher -->
<g id="edge2" class="edge">
<title>LearningPath-&gt;Teacher</title>
<path fill="none" stroke="#595959" d="M543.858,-798.6089C543.858,-798.6089 543.858,-616.1056 543.858,-616.1056"/>
<polygon fill="#595959" stroke="#595959" points="543.858,-618.1056 539.858,-612.1056 543.858,-606.1056 547.858,-612.1056 543.858,-618.1056"/>
<polygon fill="#595959" stroke="#595959" points="543.858,-810.6089 539.358,-800.6089 543.858,-805.6089 543.858,-800.6089 543.858,-800.6089 543.858,-800.6089 543.858,-805.6089 548.358,-800.6089 543.858,-810.6089 543.858,-810.6089"/>
<text text-anchor="middle" x="564.0628" y="-798.0089" font-family="Times,serif" font-size="14.00" fill="#000000">teacher</text>
<text text-anchor="middle" x="564.0628" y="-781.2089" font-family="Times,serif" font-size="14.00" fill="#000000">1</text>
<text text-anchor="middle" x="540.358" y="-610.3056" font-family="Times,serif" font-size="14.00" fill="#000000">1</text>
</g>
<!-- LearningPathPersistence -->
<g id="node3" class="node">
<title>LearningPathPersistence</title>
<polygon fill="none" stroke="#000000" points="2291.7598,-1404.1 2291.7598,-1545.7 2601.1382,-1545.7 2601.1382,-1404.1 2291.7598,-1404.1"/>
<text text-anchor="middle" x="2446.449" y="-1529.1" font-family="Times,serif" font-size="14.00" fill="#000000">LearningPathPersistence</text>
<polyline fill="none" stroke="#000000" points="2291.7598,-1520.9 2601.1382,-1520.9 "/>
<text text-anchor="start" x="2299.7598" y="-1504.3" font-family="Times,serif" font-size="14.00" fill="#000000">+ LearningPathPersistence() : </text>
<polyline fill="none" stroke="#000000" points="2291.7598,-1496.1 2601.1382,-1496.1 "/>
<text text-anchor="start" x="2299.7598" y="-1479.5" font-family="Times,serif" font-size="14.00" fill="#000000">+ loadLearningPath(String) : LearningPath</text>
<text text-anchor="start" x="2299.7598" y="-1462.7" font-family="Times,serif" font-size="14.00" fill="#000000"> + saveLearningPath(LearningPath) : void</text>
<text text-anchor="start" x="2299.7598" y="-1445.9" font-family="Times,serif" font-size="14.00" fill="#000000"> - saveAllLearningPaths(List&lt;LearningPath&gt;) : void</text>
<text text-anchor="start" x="2299.7598" y="-1429.1" font-family="Times,serif" font-size="14.00" fill="#000000"> + deleteLearningPath(String) : void</text>
<text text-anchor="start" x="2299.7598" y="-1412.3" font-family="Times,serif" font-size="14.00" fill="#000000"> - loadAllLearningPaths() : List&lt;LearningPath&gt;</text>
</g>
<!-- LocalDateAdapter -->
<g id="node5" class="node">
<title>LocalDateAdapter</title>
<polygon fill="none" stroke="#000000" points="2332.4592,-1020.3 2332.4592,-1111.5 2560.4388,-1111.5 2560.4388,-1020.3 2332.4592,-1020.3"/>
<text text-anchor="middle" x="2446.449" y="-1094.9" font-family="Times,serif" font-size="14.00" fill="#000000">LocalDateAdapter</text>
<polyline fill="none" stroke="#000000" points="2332.4592,-1086.7 2560.4388,-1086.7 "/>
<text text-anchor="start" x="2340.4592" y="-1070.1" font-family="Times,serif" font-size="14.00" fill="#000000">+ LocalDateAdapter() : </text>
<polyline fill="none" stroke="#000000" points="2332.4592,-1061.9 2560.4388,-1061.9 "/>
<text text-anchor="start" x="2340.4592" y="-1045.3" font-family="Times,serif" font-size="14.00" fill="#000000">+ write(JsonWriter, LocalDate) : void</text>
<text text-anchor="start" x="2340.4592" y="-1028.5" font-family="Times,serif" font-size="14.00" fill="#000000"> + read(JsonReader) : LocalDate</text>
</g>
<!-- LearningPathPersistence&#45;&gt;LocalDateAdapter -->
<g id="edge3" class="edge">
<title>LearningPathPersistence-&gt;LocalDateAdapter</title>
<path fill="none" stroke="#595959" stroke-dasharray="5,2" d="M2484.4456,-1403.6576C2484.4456,-1403.6576 2484.4456,-1121.6146 2484.4456,-1121.6146"/>
<polygon fill="#595959" stroke="#595959" points="2484.4456,-1111.6146 2488.9457,-1121.6146 2484.4456,-1116.6146 2484.4457,-1121.6146 2484.4457,-1121.6146 2484.4457,-1121.6146 2484.4456,-1116.6146 2479.9457,-1121.6147 2484.4456,-1111.6146 2484.4456,-1111.6146"/>
<text text-anchor="middle" x="2474.8144" y="-1343.8" font-family="Times,serif" font-size="14.00" fill="#000000">«create»</text>
</g>
<!-- LearningPathSystem -->
<g id="node4" class="node">
<title>LearningPathSystem</title>
<polygon fill="none" stroke="#000000" points="0,-1404.1 0,-1545.7 732.898,-1545.7 732.898,-1404.1 0,-1404.1"/>
<text text-anchor="middle" x="366.449" y="-1529.1" font-family="Times,serif" font-size="14.00" fill="#000000">LearningPathSystem</text>
<polyline fill="none" stroke="#000000" points="0,-1520.9 732.898,-1520.9 "/>
<text text-anchor="start" x="8" y="-1504.3" font-family="Times,serif" font-size="14.00" fill="#000000">+ LearningPathSystem() : </text>
<polyline fill="none" stroke="#000000" points="0,-1496.1 732.898,-1496.1 "/>
<text text-anchor="start" x="8" y="-1479.5" font-family="Times,serif" font-size="14.00" fill="#000000">+ createLearningPath(User, String, String, String, String, int, double, LocalDate, LocalDate, int, List&lt;Activity&gt;) : LearningPath</text>
<text text-anchor="start" x="8" y="-1462.7" font-family="Times,serif" font-size="14.00" fill="#000000"> + enrollInLearningPath(User, String) : void</text>
<text text-anchor="start" x="8" y="-1445.9" font-family="Times,serif" font-size="14.00" fill="#000000"> + addActivityToLearningPath(User, LearningPath, Activity) : void</text>
<text text-anchor="start" x="8" y="-1429.1" font-family="Times,serif" font-size="14.00" fill="#000000"> + listLearningPaths() : List&lt;LearningPath&gt;</text>
<text text-anchor="start" x="8" y="-1412.3" font-family="Times,serif" font-size="14.00" fill="#000000"> + getLearningPathByTitle(String) : LearningPath</text>
</g>
<!-- LearningPathSystem&#45;&gt;LearningPath -->
<g id="edge4" class="edge">
<title>LearningPathSystem-&gt;LearningPath</title>
<path fill="none" stroke="#595959" d="M304.3302,-1391.6576C304.3302,-1391.6576 304.3302,-1331.3125 304.3302,-1331.3125"/>
<polygon fill="#595959" stroke="#595959" points="304.3302,-1333.3125 300.3302,-1327.3125 304.3302,-1321.3125 308.3302,-1327.3125 304.3302,-1333.3125"/>
<polygon fill="#595959" stroke="#595959" points="304.3302,-1403.6576 299.8302,-1393.6576 304.3302,-1398.6576 304.3302,-1393.6576 304.3302,-1393.6576 304.3302,-1393.6576 304.3302,-1398.6576 308.8302,-1393.6576 304.3302,-1403.6576 304.3302,-1403.6576"/>
<text text-anchor="middle" x="266.2285" y="-1391.0576" font-family="Times,serif" font-size="14.00" fill="#000000">learningPaths</text>
<text text-anchor="middle" x="266.2285" y="-1374.2576" font-family="Times,serif" font-size="14.00" fill="#000000">*</text>
<text text-anchor="middle" x="300.8302" y="-1325.5125" font-family="Times,serif" font-size="14.00" fill="#000000">1</text>
</g>
<!-- LearningPathSystem&#45;&gt;LearningPath -->
<g id="edge5" class="edge">
<title>LearningPathSystem-&gt;LearningPath</title>
<path fill="none" stroke="#595959" stroke-dasharray="5,2" d="M518.5678,-1403.6576C518.5678,-1403.6576 518.5678,-1331.3125 518.5678,-1331.3125"/>
<polygon fill="#595959" stroke="#595959" points="518.5678,-1321.3125 523.0679,-1331.3124 518.5678,-1326.3125 518.5679,-1331.3125 518.5679,-1331.3125 518.5679,-1331.3125 518.5678,-1326.3125 514.0679,-1331.3125 518.5678,-1321.3125 518.5678,-1321.3125"/>
<text text-anchor="middle" x="381.8144" y="-1343.8" font-family="Times,serif" font-size="14.00" fill="#000000">«create»</text>
</g>
<!-- Main -->
<g id="node6" class="node">
<title>Main</title>
<polygon fill="none" stroke="#000000" points="1085.4298,-1628.7 1085.4298,-1703.1 1229.4682,-1703.1 1229.4682,-1628.7 1085.4298,-1628.7"/>
<text text-anchor="middle" x="1157.449" y="-1686.5" font-family="Times,serif" font-size="14.00" fill="#000000">Main</text>
<polyline fill="none" stroke="#000000" points="1085.4298,-1678.3 1229.4682,-1678.3 "/>
<text text-anchor="start" x="1093.4298" y="-1661.7" font-family="Times,serif" font-size="14.00" fill="#000000">+ Main() : </text>
<polyline fill="none" stroke="#000000" points="1085.4298,-1653.5 1229.4682,-1653.5 "/>
<text text-anchor="start" x="1093.4298" y="-1636.9" font-family="Times,serif" font-size="14.00" fill="#000000">+ main(String[]) : void</text>
</g>
<!-- Main&#45;&gt;LearningPathSystem -->
<g id="edge6" class="edge">
<title>Main-&gt;LearningPathSystem</title>
<path fill="none" stroke="#595959" stroke-dasharray="5,2" d="M1085.1561,-1678C889.8886,-1678 366.449,-1678 366.449,-1678 366.449,-1678 366.449,-1555.9345 366.449,-1555.9345"/>
<polygon fill="#595959" stroke="#595959" points="366.449,-1545.9345 370.9491,-1555.9345 366.449,-1550.9345 366.4491,-1555.9345 366.4491,-1555.9345 366.4491,-1555.9345 366.449,-1550.9345 361.9491,-1555.9346 366.449,-1545.9345 366.449,-1545.9345"/>
<text text-anchor="middle" x="555.8144" y="-1597.6" font-family="Times,serif" font-size="14.00" fill="#000000">«create»</text>
</g>
<!-- Student -->
<g id="node11" class="node">
<title>Student</title>
<polygon fill="none" stroke="#000000" points="1421.3078,-1028.7 1421.3078,-1103.1 1669.5902,-1103.1 1669.5902,-1028.7 1421.3078,-1028.7"/>
<text text-anchor="middle" x="1545.449" y="-1086.5" font-family="Times,serif" font-size="14.00" fill="#000000">Student</text>
<polyline fill="none" stroke="#000000" points="1421.3078,-1078.3 1669.5902,-1078.3 "/>
<text text-anchor="start" x="1429.3078" y="-1061.7" font-family="Times,serif" font-size="14.00" fill="#000000">+ Student(String, String, String, String) : </text>
<polyline fill="none" stroke="#000000" points="1421.3078,-1053.5 1669.5902,-1053.5 "/>
<text text-anchor="start" x="1429.3078" y="-1036.9" font-family="Times,serif" font-size="14.00" fill="#000000">+ getQuizResults(Quiz) : double</text>
</g>
<!-- Main&#45;&gt;Student -->
<g id="edge7" class="edge">
<title>Main-&gt;Student</title>
<path fill="none" stroke="#595959" stroke-dasharray="5,2" d="M1229.802,-1665C1352.1721,-1665 1586.8294,-1665 1586.8294,-1665 1586.8294,-1665 1586.8294,-1113.3764 1586.8294,-1113.3764"/>
<polygon fill="#595959" stroke="#595959" points="1586.8294,-1103.3764 1591.3295,-1113.3763 1586.8294,-1108.3764 1586.8295,-1113.3764 1586.8295,-1113.3764 1586.8295,-1113.3764 1586.8294,-1108.3764 1582.3295,-1113.3764 1586.8294,-1103.3764 1586.8294,-1103.3764"/>
<text text-anchor="middle" x="1420.8144" y="-1470.7" font-family="Times,serif" font-size="14.00" fill="#000000">«create»</text>
</g>
<!-- Main&#45;&gt;Teacher -->
<g id="edge8" class="edge">
<title>Main-&gt;Teacher</title>
<path fill="none" stroke="#595959" stroke-dasharray="5,2" d="M1085.1026,-1653C970.6066,-1653 760.4921,-1653 760.4921,-1653 760.4921,-1653 760.4921,-616.3984 760.4921,-616.3984"/>
<polygon fill="#595959" stroke="#595959" points="760.4921,-606.3984 764.9921,-616.3984 760.4921,-611.3984 760.4921,-616.3984 760.4921,-616.3984 760.4921,-616.3984 760.4921,-611.3984 755.9921,-616.3985 760.4921,-606.3984 760.4921,-606.3984"/>
<text text-anchor="middle" x="788.8144" y="-1343.8" font-family="Times,serif" font-size="14.00" fill="#000000">«create»</text>
</g>
<!-- UserPersistence -->
<g id="node15" class="node">
<title>UserPersistence</title>
<polygon fill="none" stroke="#000000" points="1838.7542,-1395.7 1838.7542,-1554.1 2050.1438,-1554.1 2050.1438,-1395.7 1838.7542,-1395.7"/>
<text text-anchor="middle" x="1944.449" y="-1537.5" font-family="Times,serif" font-size="14.00" fill="#000000">UserPersistence</text>
<polyline fill="none" stroke="#000000" points="1838.7542,-1529.3 2050.1438,-1529.3 "/>
<text text-anchor="start" x="1846.7542" y="-1512.7" font-family="Times,serif" font-size="14.00" fill="#000000">+ UserPersistence() : </text>
<polyline fill="none" stroke="#000000" points="1838.7542,-1504.5 2050.1438,-1504.5 "/>
<text text-anchor="start" x="1846.7542" y="-1487.9" font-family="Times,serif" font-size="14.00" fill="#000000">+ loadUser(String) : User</text>
<text text-anchor="start" x="1846.7542" y="-1471.1" font-family="Times,serif" font-size="14.00" fill="#000000"> + login(String, String) : User</text>
<text text-anchor="start" x="1846.7542" y="-1454.3" font-family="Times,serif" font-size="14.00" fill="#000000"> + saveUser(User) : void</text>
<text text-anchor="start" x="1846.7542" y="-1437.5" font-family="Times,serif" font-size="14.00" fill="#000000"> - saveAllUsers(List&lt;User&gt;) : void</text>
<text text-anchor="start" x="1846.7542" y="-1420.7" font-family="Times,serif" font-size="14.00" fill="#000000"> - loadAllUsers() : List&lt;User&gt;</text>
<text text-anchor="start" x="1846.7542" y="-1403.9" font-family="Times,serif" font-size="14.00" fill="#000000"> + deleteUser(String) : void</text>
</g>
<!-- Main&#45;&gt;UserPersistence -->
<g id="edge9" class="edge">
<title>Main-&gt;UserPersistence</title>
<path fill="none" stroke="#595959" stroke-dasharray="5,2" d="M1221.1401,-1628.4442C1221.1401,-1572.5978 1221.1401,-1474 1221.1401,-1474 1221.1401,-1474 1828.499,-1474 1828.499,-1474"/>
<polygon fill="#595959" stroke="#595959" points="1838.499,-1474 1828.4991,-1478.5001 1833.499,-1474 1828.499,-1474.0001 1828.499,-1474.0001 1828.499,-1474.0001 1833.499,-1474 1828.499,-1469.5001 1838.499,-1474 1838.499,-1474"/>
<text text-anchor="middle" x="1748.8144" y="-1597.6" font-family="Times,serif" font-size="14.00" fill="#000000">«create»</text>
</g>
<!-- Option -->
<g id="node7" class="node">
<title>Option</title>
<polygon fill="none" stroke="#000000" points="1894.8176,-80.1 1894.8176,-246.5 2108.0804,-246.5 2108.0804,-80.1 1894.8176,-80.1"/>
<text text-anchor="middle" x="2001.449" y="-229.9" font-family="Times,serif" font-size="14.00" fill="#000000">Option</text>
<polyline fill="none" stroke="#000000" points="1894.8176,-221.7 2108.0804,-221.7 "/>
<text text-anchor="start" x="1902.8176" y="-205.1" font-family="Times,serif" font-size="14.00" fill="#000000">+ Option(String, boolean, String) : </text>
<polyline fill="none" stroke="#000000" points="1894.8176,-196.9 2108.0804,-196.9 "/>
<text text-anchor="start" x="1902.8176" y="-180.3" font-family="Times,serif" font-size="14.00" fill="#000000">- optionText : String</text>
<text text-anchor="start" x="1902.8176" y="-163.5" font-family="Times,serif" font-size="14.00" fill="#000000"> - explanation : String</text>
<text text-anchor="start" x="1902.8176" y="-146.7" font-family="Times,serif" font-size="14.00" fill="#000000"> - isCorrect : boolean</text>
<polyline fill="none" stroke="#000000" points="1894.8176,-138.5 2108.0804,-138.5 "/>
<text text-anchor="start" x="1902.8176" y="-121.9" font-family="Times,serif" font-size="14.00" fill="#000000">optionText : String</text>
<text text-anchor="start" x="1902.8176" y="-105.1" font-family="Times,serif" font-size="14.00" fill="#000000"> explanation : String</text>
<text text-anchor="start" x="1902.8176" y="-88.3" font-family="Times,serif" font-size="14.00" fill="#000000"> isCorrect : boolean</text>
</g>
<!-- Progress -->
<g id="node8" class="node">
<title>Progress</title>
<polygon fill="none" stroke="#000000" points="788.0861,-1374.9 788.0861,-1574.9 1212.8119,-1574.9 1212.8119,-1374.9 788.0861,-1374.9"/>
<text text-anchor="middle" x="1000.449" y="-1558.3" font-family="Times,serif" font-size="14.00" fill="#000000">Progress</text>
<polyline fill="none" stroke="#000000" points="788.0861,-1550.1 1212.8119,-1550.1 "/>
<text text-anchor="start" x="796.0861" y="-1533.5" font-family="Times,serif" font-size="14.00" fill="#000000">+ Progress(Student, LearningPath, Activity, Date, Date, boolean, float) : </text>
<polyline fill="none" stroke="#000000" points="788.0861,-1525.3 1212.8119,-1525.3 "/>
<text text-anchor="start" x="796.0861" y="-1508.7" font-family="Times,serif" font-size="14.00" fill="#000000">- activity : Activity</text>
<text text-anchor="start" x="796.0861" y="-1491.9" font-family="Times,serif" font-size="14.00" fill="#000000"> - startDate : Date</text>
<text text-anchor="start" x="796.0861" y="-1475.1" font-family="Times,serif" font-size="14.00" fill="#000000"> - learningPath : LearningPath</text>
<text text-anchor="start" x="796.0861" y="-1458.3" font-family="Times,serif" font-size="14.00" fill="#000000"> - student : Student</text>
<polyline fill="none" stroke="#000000" points="788.0861,-1450.1 1212.8119,-1450.1 "/>
<text text-anchor="start" x="796.0861" y="-1433.5" font-family="Times,serif" font-size="14.00" fill="#000000">activity : Activity</text>
<text text-anchor="start" x="796.0861" y="-1416.7" font-family="Times,serif" font-size="14.00" fill="#000000"> student : Student</text>
<text text-anchor="start" x="796.0861" y="-1399.9" font-family="Times,serif" font-size="14.00" fill="#000000"> startDate : Date</text>
<text text-anchor="start" x="796.0861" y="-1383.1" font-family="Times,serif" font-size="14.00" fill="#000000"> learningPath : LearningPath</text>
</g>
<!-- Progress&#45;&gt;Activity -->
<g id="edge10" class="edge">
<title>Progress-&gt;Activity</title>
<path fill="none" stroke="#595959" d="M841.9852,-1362.8804C841.9852,-1362.8804 841.9852,-682 841.9852,-682 841.9852,-682 876.5186,-682 876.5186,-682"/>
<polygon fill="#595959" stroke="#595959" points="841.9853,-1362.8804 845.9853,-1368.8804 841.9852,-1374.8804 837.9853,-1368.8804 841.9853,-1362.8804"/>
<polygon fill="#595959" stroke="#595959" points="886.5186,-682 876.5186,-686.5001 881.5186,-682 876.5186,-682.0001 876.5186,-682.0001 876.5186,-682.0001 881.5186,-682 876.5185,-677.5001 886.5186,-682 886.5186,-682"/>
<text text-anchor="middle" x="865.5228" y="-703" font-family="Times,serif" font-size="14.00" fill="#000000">activity</text>
<text text-anchor="middle" x="865.5228" y="-686.2" font-family="Times,serif" font-size="14.00" fill="#000000">1</text>
<text text-anchor="middle" x="838.4852" y="-1362.2804" font-family="Times,serif" font-size="14.00" fill="#000000">1</text>
</g>
<!-- Progress&#45;&gt;LearningPath -->
<g id="edge11" class="edge">
<title>Progress-&gt;LearningPath</title>
<path fill="none" stroke="#595959" d="M815.0357,-1362.7639C815.0357,-1362.7639 815.0357,-1233 815.0357,-1233 815.0357,-1233 742.8774,-1233 742.8774,-1233"/>
<polygon fill="#595959" stroke="#595959" points="815.0358,-1362.7639 819.0357,-1368.7639 815.0357,-1374.7639 811.0357,-1368.7638 815.0358,-1362.7639"/>
<polygon fill="#595959" stroke="#595959" points="732.8774,-1233 742.8775,-1228.5001 737.8774,-1233 742.8774,-1233.0001 742.8774,-1233.0001 742.8774,-1233.0001 737.8774,-1233 742.8774,-1237.5001 732.8774,-1233 732.8774,-1233"/>
<text text-anchor="middle" x="768.2568" y="-1254" font-family="Times,serif" font-size="14.00" fill="#000000">learningPath</text>
<text text-anchor="middle" x="768.2568" y="-1237.2" font-family="Times,serif" font-size="14.00" fill="#000000">1</text>
<text text-anchor="middle" x="811.5357" y="-1362.1639" font-family="Times,serif" font-size="14.00" fill="#000000">1</text>
</g>
<!-- Progress&#45;&gt;Student -->
<g id="edge12" class="edge">
<title>Progress-&gt;Student</title>
<path fill="none" stroke="#595959" d="M1224.9342,-1384C1224.9342,-1384 1504.0686,-1384 1504.0686,-1384 1504.0686,-1384 1504.0686,-1113.3255 1504.0686,-1113.3255"/>
<polygon fill="#595959" stroke="#595959" points="1224.9342,-1384.0001 1218.9342,-1388 1212.9342,-1384 1218.9342,-1380 1224.9342,-1384.0001"/>
<polygon fill="#595959" stroke="#595959" points="1504.0686,-1103.3255 1508.5687,-1113.3255 1504.0686,-1108.3255 1504.0687,-1113.3255 1504.0687,-1113.3255 1504.0687,-1113.3255 1504.0686,-1108.3255 1499.5687,-1113.3256 1504.0686,-1103.3255 1504.0686,-1103.3255"/>
<text text-anchor="middle" x="1483.8484" y="-1124.3255" font-family="Times,serif" font-size="14.00" fill="#000000">student</text>
<text text-anchor="middle" x="1483.8484" y="-1107.5255" font-family="Times,serif" font-size="14.00" fill="#000000">1</text>
<text text-anchor="middle" x="1216.4342" y="-1388.2" font-family="Times,serif" font-size="14.00" fill="#000000">1</text>
</g>
<!-- Question -->
<g id="node9" class="node">
<title>Question</title>
<polygon fill="none" stroke="#000000" points="1952.3723,-535.7 1952.3723,-585.3 2050.5257,-585.3 2050.5257,-535.7 1952.3723,-535.7"/>
<text text-anchor="middle" x="2001.449" y="-568.7" font-family="Times,serif" font-size="14.00" fill="#000000">Question</text>
<polyline fill="none" stroke="#000000" points="1952.3723,-560.5 2050.5257,-560.5 "/>
<text text-anchor="start" x="1960.3723" y="-543.9" font-family="Times,serif" font-size="14.00" fill="#000000">+ Question() : </text>
</g>
<!-- Question&#45;&gt;Option -->
<g id="edge13" class="edge">
<title>Question-&gt;Option</title>
<path fill="none" stroke="#595959" d="M2001.449,-523.6534C2001.449,-523.6534 2001.449,-256.8631 2001.449,-256.8631"/>
<polygon fill="#595959" stroke="#595959" points="2001.449,-258.8631 1997.449,-252.8631 2001.449,-246.8631 2005.449,-252.8631 2001.449,-258.8631"/>
<polygon fill="#595959" stroke="#595959" points="2001.449,-535.6534 1996.949,-525.6534 2001.449,-530.6534 2001.449,-525.6534 2001.449,-525.6534 2001.449,-525.6534 2001.449,-530.6534 2005.949,-525.6534 2001.449,-535.6534 2001.449,-535.6534"/>
<text text-anchor="middle" x="1980.8361" y="-523.0534" font-family="Times,serif" font-size="14.00" fill="#000000">options</text>
<text text-anchor="middle" x="1980.8361" y="-506.2534" font-family="Times,serif" font-size="14.00" fill="#000000">*</text>
<text text-anchor="middle" x="1997.949" y="-251.0631" font-family="Times,serif" font-size="14.00" fill="#000000">1</text>
</g>
<!-- Quiz -->
<g id="node10" class="node">
<title>Quiz</title>
<polygon fill="none" stroke="#000000" points="1687.9795,-987.1 1687.9795,-1144.7 2314.9185,-1144.7 2314.9185,-987.1 1687.9795,-987.1"/>
<text text-anchor="middle" x="2001.449" y="-1128.1" font-family="Times,serif" font-size="14.00" fill="#000000">Quiz</text>
<polyline fill="none" stroke="#000000" points="1687.9795,-1119.9 2314.9185,-1119.9 "/>
<text text-anchor="start" x="1695.9795" y="-1103.3" font-family="Times,serif" font-size="14.00" fill="#000000">+ Quiz(String, String, String, int, boolean, List&lt;Activity&gt;, List&lt;Activity&gt;, String, List&lt;Question&gt;, double) : </text>
<polyline fill="none" stroke="#000000" points="1687.9795,-1095.1 2314.9185,-1095.1 "/>
<text text-anchor="start" x="1695.9795" y="-1078.5" font-family="Times,serif" font-size="14.00" fill="#000000">- passingGrade : double</text>
<text text-anchor="start" x="1695.9795" y="-1061.7" font-family="Times,serif" font-size="14.00" fill="#000000"> - questions : List&lt;Question&gt;</text>
<polyline fill="none" stroke="#000000" points="1687.9795,-1053.5 2314.9185,-1053.5 "/>
<text text-anchor="start" x="1695.9795" y="-1036.9" font-family="Times,serif" font-size="14.00" fill="#000000">+ isCompletedByStudent(Student) : boolean</text>
<polyline fill="none" stroke="#000000" points="1687.9795,-1028.7 2314.9185,-1028.7 "/>
<text text-anchor="start" x="1695.9795" y="-1012.1" font-family="Times,serif" font-size="14.00" fill="#000000">passingGrade : double</text>
<text text-anchor="start" x="1695.9795" y="-995.3" font-family="Times,serif" font-size="14.00" fill="#000000"> questions : List&lt;Question&gt;</text>
</g>
<!-- Quiz&#45;&gt;Activity -->
<g id="edge14" class="edge">
<title>Quiz-&gt;Activity</title>
<path fill="none" stroke="#000082" d="M1791.3986,-986.9352C1791.3986,-871.6933 1791.3986,-671 1791.3986,-671 1791.3986,-671 1402.4428,-671 1402.4428,-671"/>
<polygon fill="#000082" stroke="#000082" points="1402.4429,-667.5001 1392.4428,-671 1402.4428,-674.5001 1402.4429,-667.5001"/>
</g>
<!-- Quiz&#45;&gt;Question -->
<g id="edge15" class="edge">
<title>Quiz-&gt;Question</title>
<path fill="none" stroke="#595959" d="M2001.449,-974.9313C2001.449,-974.9313 2001.449,-595.3045 2001.449,-595.3045"/>
<polygon fill="#595959" stroke="#595959" points="2001.449,-597.3045 1997.449,-591.3045 2001.449,-585.3045 2005.449,-591.3045 2001.449,-597.3045"/>
<polygon fill="#595959" stroke="#595959" points="2001.449,-986.9313 1996.949,-976.9312 2001.449,-981.9313 2001.449,-976.9313 2001.449,-976.9313 2001.449,-976.9313 2001.449,-981.9313 2005.949,-976.9313 2001.449,-986.9313 2001.449,-986.9313"/>
<text text-anchor="middle" x="1975.0065" y="-974.3313" font-family="Times,serif" font-size="14.00" fill="#000000">questions</text>
<text text-anchor="middle" x="1975.0065" y="-957.5313" font-family="Times,serif" font-size="14.00" fill="#000000">*</text>
<text text-anchor="middle" x="1997.949" y="-589.5045" font-family="Times,serif" font-size="14.00" fill="#000000">1</text>
</g>
<!-- User -->
<g id="node14" class="node">
<title>User</title>
<polygon fill="none" stroke="#000000" points="380.8716,-.5 380.8716,-326.1 654.0264,-326.1 654.0264,-.5 380.8716,-.5"/>
<text text-anchor="middle" x="517.449" y="-309.5" font-family="Times,serif" font-size="14.00" fill="#000000">User</text>
<polyline fill="none" stroke="#000000" points="380.8716,-301.3 654.0264,-301.3 "/>
<text text-anchor="start" x="388.8716" y="-284.7" font-family="Times,serif" font-size="14.00" fill="#000000">+ User(String, String, String, String, String) : </text>
<polyline fill="none" stroke="#000000" points="380.8716,-276.5 654.0264,-276.5 "/>
<text text-anchor="start" x="388.8716" y="-259.9" font-family="Times,serif" font-size="14.00" fill="#000000">- email : String</text>
<text text-anchor="start" x="388.8716" y="-243.1" font-family="Times,serif" font-size="14.00" fill="#000000"> - role : String</text>
<text text-anchor="start" x="388.8716" y="-226.3" font-family="Times,serif" font-size="14.00" fill="#000000"> - name : String</text>
<text text-anchor="start" x="388.8716" y="-209.5" font-family="Times,serif" font-size="14.00" fill="#000000"> - id : String</text>
<text text-anchor="start" x="388.8716" y="-192.7" font-family="Times,serif" font-size="14.00" fill="#000000"> - enrolledPaths : List&lt;LearningPath&gt;</text>
<text text-anchor="start" x="388.8716" y="-175.9" font-family="Times,serif" font-size="14.00" fill="#000000"> - password : String</text>
<polyline fill="none" stroke="#000000" points="380.8716,-167.7 654.0264,-167.7 "/>
<text text-anchor="start" x="388.8716" y="-151.1" font-family="Times,serif" font-size="14.00" fill="#000000">+ enroll(LearningPath) : void</text>
<text text-anchor="start" x="388.8716" y="-134.3" font-family="Times,serif" font-size="14.00" fill="#000000"> + unenroll(LearningPath) : void</text>
<text text-anchor="start" x="388.8716" y="-117.5" font-family="Times,serif" font-size="14.00" fill="#000000"> + login(String, String) : boolean</text>
<polyline fill="none" stroke="#000000" points="380.8716,-109.3 654.0264,-109.3 "/>
<text text-anchor="start" x="388.8716" y="-92.7" font-family="Times,serif" font-size="14.00" fill="#000000">name : String</text>
<text text-anchor="start" x="388.8716" y="-75.9" font-family="Times,serif" font-size="14.00" fill="#000000"> password : String</text>
<text text-anchor="start" x="388.8716" y="-59.1" font-family="Times,serif" font-size="14.00" fill="#000000"> enrolledPaths : List&lt;LearningPath&gt;</text>
<text text-anchor="start" x="388.8716" y="-42.3" font-family="Times,serif" font-size="14.00" fill="#000000"> id : String</text>
<text text-anchor="start" x="388.8716" y="-25.5" font-family="Times,serif" font-size="14.00" fill="#000000"> role : String</text>
<text text-anchor="start" x="388.8716" y="-8.7" font-family="Times,serif" font-size="14.00" fill="#000000"> email : Object</text>
</g>
<!-- Student&#45;&gt;User -->
<g id="edge16" class="edge">
<title>Student-&gt;User</title>
<path fill="none" stroke="#000082" d="M1545.449,-1028.5465C1545.449,-873.1565 1545.449,-286 1545.449,-286 1545.449,-286 664.225,-286 664.225,-286"/>
<polygon fill="#000082" stroke="#000082" points="664.2251,-282.5001 654.225,-286 664.225,-289.5001 664.2251,-282.5001"/>
</g>
<!-- Task -->
<g id="node12" class="node">
<title>Task</title>
<polygon fill="none" stroke="#000000" points="875.4772,-995.5 875.4772,-1136.3 1403.4208,-1136.3 1403.4208,-995.5 875.4772,-995.5"/>
<text text-anchor="middle" x="1139.449" y="-1119.7" font-family="Times,serif" font-size="14.00" fill="#000000">Task</text>
<polyline fill="none" stroke="#000000" points="875.4772,-1111.5 1403.4208,-1111.5 "/>
<text text-anchor="start" x="883.4772" y="-1094.9" font-family="Times,serif" font-size="14.00" fill="#000000">+ Task(String, String, String, int, boolean, List&lt;Activity&gt;, List&lt;Activity&gt;, String, String) : </text>
<polyline fill="none" stroke="#000000" points="875.4772,-1086.7 1403.4208,-1086.7 "/>
<text text-anchor="start" x="883.4772" y="-1070.1" font-family="Times,serif" font-size="14.00" fill="#000000">- taskText : String</text>
<polyline fill="none" stroke="#000000" points="875.4772,-1061.9 1403.4208,-1061.9 "/>
<text text-anchor="start" x="883.4772" y="-1045.3" font-family="Times,serif" font-size="14.00" fill="#000000">+ isCompletedByStudent(Student) : boolean</text>
<polyline fill="none" stroke="#000000" points="875.4772,-1037.1 1403.4208,-1037.1 "/>
<text text-anchor="start" x="883.4772" y="-1020.5" font-family="Times,serif" font-size="14.00" fill="#000000">details : String</text>
<text text-anchor="start" x="883.4772" y="-1003.7" font-family="Times,serif" font-size="14.00" fill="#000000"> taskText : String</text>
</g>
<!-- Task&#45;&gt;Activity -->
<g id="edge17" class="edge">
<title>Task-&gt;Activity</title>
<path fill="none" stroke="#000082" d="M1223.6808,-995.3604C1223.6808,-995.3604 1223.6808,-767.1637 1223.6808,-767.1637"/>
<polygon fill="#000082" stroke="#000082" points="1227.1809,-767.1636 1223.6808,-757.1637 1220.1809,-767.1637 1227.1809,-767.1636"/>
</g>
<!-- Teacher&#45;&gt;LearningPath -->
<g id="edge18" class="edge">
<title>Teacher-&gt;LearningPath</title>
<path fill="none" stroke="#595959" stroke-dasharray="5,2" d="M354.9106,-606.2423C354.9106,-606.2423 354.9106,-800.5727 354.9106,-800.5727"/>
<polygon fill="#595959" stroke="#595959" points="354.9106,-810.5727 350.4107,-800.5727 354.9106,-805.5727 354.9107,-800.5727 354.9107,-800.5727 354.9107,-800.5727 354.9106,-805.5727 359.4107,-800.5728 354.9106,-810.5727 354.9106,-810.5727"/>
<text text-anchor="middle" x="504.8144" y="-779.6" font-family="Times,serif" font-size="14.00" fill="#000000">«create»</text>
</g>
<!-- Teacher&#45;&gt;User -->
<g id="edge19" class="edge">
<title>Teacher-&gt;User</title>
<path fill="none" stroke="#000082" d="M517.449,-514.5481C517.449,-514.5481 517.449,-336.4527 517.449,-336.4527"/>
<polygon fill="#000082" stroke="#000082" points="520.9491,-336.4527 517.449,-326.4527 513.9491,-336.4527 520.9491,-336.4527"/>
</g>
<!-- User&#45;&gt;LearningPath -->
<g id="edge20" class="edge">
<title>User-&gt;LearningPath</title>
<path fill="none" stroke="#595959" d="M368.7013,-163C368.7013,-163 128.0279,-163 128.0279,-163 128.0279,-163 128.0279,-800.4843 128.0279,-800.4843"/>
<polygon fill="#595959" stroke="#595959" points="368.7013,-163.0001 374.7012,-159 380.7013,-163 374.7013,-167 368.7013,-163.0001"/>
<polygon fill="#595959" stroke="#595959" points="128.0279,-810.4843 123.528,-800.4843 128.0279,-805.4843 128.028,-800.4843 128.028,-800.4843 128.028,-800.4843 128.0279,-805.4843 132.528,-800.4844 128.0279,-810.4843 128.0279,-810.4843"/>
<text text-anchor="middle" x="89.9262" y="-797.8843" font-family="Times,serif" font-size="14.00" fill="#000000">enrolledPaths</text>
<text text-anchor="middle" x="89.9262" y="-781.0843" font-family="Times,serif" font-size="14.00" fill="#000000">*</text>
<text text-anchor="middle" x="377.2013" y="-167.2" font-family="Times,serif" font-size="14.00" fill="#000000">1</text>
</g>
<!-- UserPersistence&#45;&gt;LocalDateAdapter -->
<g id="edge21" class="edge">
<title>UserPersistence-&gt;LocalDateAdapter</title>
<path fill="none" stroke="#595959" stroke-dasharray="5,2" d="M2050.3191,-1399C2187.2652,-1399 2408.4524,-1399 2408.4524,-1399 2408.4524,-1399 2408.4524,-1121.5177 2408.4524,-1121.5177"/>
<polygon fill="#595959" stroke="#595959" points="2408.4524,-1111.5177 2412.9525,-1121.5177 2408.4524,-1116.5177 2408.4525,-1121.5177 2408.4525,-1121.5177 2408.4525,-1121.5177 2408.4524,-1116.5177 2403.9525,-1121.5177 2408.4524,-1111.5177 2408.4524,-1111.5177"/>
<text text-anchor="middle" x="2183.8144" y="-1343.8" font-family="Times,serif" font-size="14.00" fill="#000000">«create»</text>
</g>
</g>
</svg>